{"asset":{"version":"2.0","generator":"THREE.GLTFExporter"},"scenes":[{"name":"AuxScene","nodes":[0]}],"scene":0,"nodes":[{"matrix":[1,0,0,0,0,1,0,0,0,0,1,0,-0.8849429888809901,-0.3979539851451275,4.615274178606123,1],"mesh":0}],"bufferViews":[{"buffer":0,"byteOffset":0,"byteLength":612,"target":34962,"byteStride":12},{"buffer":0,"byteOffset":612,"byteLength":612,"target":34962,"byteStride":12},{"buffer":0,"byteOffset":1224,"byteLength":408,"target":34962,"byteStride":8},{"buffer":0,"byteOffset":1632,"byteLength":216,"target":34963}],"buffers":[{"byteLength":1848,"uri":"data:application/octet-stream;base64,"}],"accessors":[{"bufferView":0,"componentType":5126,"count":51,"max":[0.904910147190094,0.3916580379009247,0.904910147190094],"min":[-0.904910147190094,-0.3916580379009247,-0.904910147190094],"type":"VEC3"},{"bufferView":1,"componentType":5126,"count":51,"max":[0.6544821858406067,0.7560774087905884,0.6544821858406067],"min":[-0.6544821858406067,-1,-0.6544821858406067],"type":"VEC3"},{"bufferView":2,"componentType":5126,"count":51,"max":[1,1],"min":[0,0],"type":"VEC2"},{"bufferView":3,"componentType":5123,"count":108,"max":[50],"min":[0],"type":"SCALAR"}],"materials":[{"pbrMetallicRoughness":{"baseColorFactor":[0.07036009568874305,0.46207699964472876,0.2917706498067337,1],"metallicFactor":0,"roughnessFactor":0.9},"extensions":{"KHR_materials_unlit":{}}}],"meshes":[{"primitives":[{"mode":4,"attributes":{"POSITION":0,"NORMAL":1,"TEXCOORD_0":2},"indices":3,"material":0}]}],"extensionsUsed":["KHR_materials_unlit"]}