{"asset":{"version":"2.0","generator":"THREE.GLTFExporter"},"scenes":[{"name":"AuxScene","nodes":[0]}],"scene":0,"nodes":[{"matrix":[1,0,0,0,0,1,0,0,0,0,1,0,1.9949137463695719,2.4297059804364602,1.0645172582038018,1],"mesh":0}],"bufferViews":[{"buffer":0,"byteOffset":0,"byteLength":420,"target":34962,"byteStride":12},{"buffer":0,"byteOffset":420,"byteLength":420,"target":34962,"byteStride":12},{"buffer":0,"byteOffset":840,"byteLength":280,"target":34962,"byteStride":8},{"buffer":0,"byteOffset":1120,"byteLength":240,"target":34963}],"buffers":[{"byteLength":1360,"uri":"data:application/octet-stream;base64,"}],"accessors":[{"bufferView":0,"componentType":5126,"count":35,"max":[0.10189015418291092,0.10189015418291092,0.10189015418291092],"min":[-0.10189015418291092,-0.10189015418291092,-0.10189015418291092],"type":"VEC3"},{"bufferView":1,"componentType":5126,"count":35,"max":[1,1,1],"min":[-1,-1,-1],"type":"VEC3"},{"bufferView":2,"componentType":5126,"count":35,"max":[1.125,1],"min":[-0.125,0],"type":"VEC2"},{"bufferView":3,"componentType":5123,"count":120,"max":[34],"min":[0],"type":"SCALAR"}],"materials":[{"pbrMetallicRoughness":{"baseColorFactor":[0.6514056374127929,0.019382360952473074,0.5647115056965487,1],"metallicFactor":0,"roughnessFactor":1}}],"meshes":[{"primitives":[{"mode":4,"attributes":{"POSITION":0,"NORMAL":1,"TEXCOORD_0":2},"indices":3,"material":0}]}]}