{"asset":{"version":"2.0","generator":"THREE.GLTFExporter"},"scenes":[{"name":"AuxScene","nodes":[0]}],"scene":0,"nodes":[{"matrix":[1,0,0,0,0,1,0,0,0,0,1,0,0.35829284189240873,1.4563425197445454,-0.9942330453203772,1],"mesh":0}],"bufferViews":[{"buffer":0,"byteOffset":0,"byteLength":300,"target":34962,"byteStride":12},{"buffer":0,"byteOffset":300,"byteLength":300,"target":34962,"byteStride":12},{"buffer":0,"byteOffset":600,"byteLength":200,"target":34962,"byteStride":8},{"buffer":0,"byteOffset":800,"byteLength":144,"target":34963}],"buffers":[{"byteLength":944,"uri":"data:application/octet-stream;base64,"}],"accessors":[{"bufferView":0,"componentType":5126,"count":25,"max":[0.2963220179080963,0.2963220179080963,0.2963220179080963],"min":[-0.2963220179080963,-0.2963220179080963,-0.2963220179080963],"type":"VEC3"},{"bufferView":1,"componentType":5126,"count":25,"max":[1,1,1],"min":[-1,-1,-1],"type":"VEC3"},{"bufferView":2,"componentType":5126,"count":25,"max":[1.125,1],"min":[-0.125,0],"type":"VEC2"},{"bufferView":3,"componentType":5123,"count":72,"max":[24],"min":[0],"type":"SCALAR"}],"materials":[{"pbrMetallicRoughness":{"baseColorFactor":[1,0,0,1],"metallicFactor":0,"roughnessFactor":0.9},"extensions":{"KHR_materials_unlit":{}}}],"meshes":[{"primitives":[{"mode":4,"attributes":{"POSITION":0,"NORMAL":1,"TEXCOORD_0":2},"indices":3,"material":0}]}],"extensionsUsed":["KHR_materials_unlit"]}