{"asset":{"version":"2.0","generator":"THREE.GLTFExporter"},"scenes":[{"name":"AuxScene","nodes":[0]}],"scene":0,"nodes":[{"matrix":[1,0,0,0,0,1,0,0,0,0,1,0,0.2116020325155601,0.15171837349961653,-0.9594910650105777,1],"mesh":0}],"bufferViews":[{"buffer":0,"byteOffset":0,"byteLength":276,"target":34962,"byteStride":12},{"buffer":0,"byteOffset":276,"byteLength":276,"target":34962,"byteStride":12},{"buffer":0,"byteOffset":552,"byteLength":184,"target":34962,"byteStride":8},{"buffer":0,"byteOffset":736,"byteLength":92,"target":34963}],"buffers":[{"byteLength":828,"uri":"data:application/octet-stream;base64,"}],"accessors":[{"bufferView":0,"componentType":5126,"count":23,"max":[0.3559418022632599,0.1517183780670166,0.374259352684021],"min":[-0.3559418022632599,-0.1517183780670166,-0.30278217792510986],"type":"VEC3"},{"bufferView":1,"componentType":5126,"count":23,"max":[0.5989572405815125,0.7767727971076965,0.6297809481620789],"min":[-0.5989572405815125,-1,-0.5095034837722778],"type":"VEC3"},{"bufferView":2,"componentType":5126,"count":23,"max":[1,1],"min":[0,0],"type":"VEC2"},{"bufferView":3,"componentType":5123,"count":45,"max":[22],"min":[0],"type":"SCALAR"}],"materials":[{"pbrMetallicRoughness":{"baseColorFactor":[0.04373502925049377,0.7083757798856457,0.158960835050774,1],"metallicFactor":0,"roughnessFactor":1}}],"meshes":[{"primitives":[{"mode":4,"attributes":{"POSITION":0,"NORMAL":1,"TEXCOORD_0":2},"indices":3,"material":0}]}]}