{"asset":{"version":"2.0","generator":"THREE.GLTFExporter"},"scenes":[{"name":"AuxScene","nodes":[0]}],"scene":0,"nodes":[{"matrix":[1,0,0,0,0,1,0,0,0,0,1,0,3.1381509444260622,1.3205721207404677,-4.991077269330804,1],"mesh":0}],"bufferViews":[{"buffer":0,"byteOffset":0,"byteLength":276,"target":34962,"byteStride":12},{"buffer":0,"byteOffset":276,"byteLength":276,"target":34962,"byteStride":12},{"buffer":0,"byteOffset":552,"byteLength":184,"target":34962,"byteStride":8},{"buffer":0,"byteOffset":736,"byteLength":92,"target":34963}],"buffers":[{"byteLength":828,"uri":"data:application/octet-stream;base64,"}],"accessors":[{"bufferView":0,"componentType":5126,"count":23,"max":[0.3918454051017761,0.37266355752944946,0.41201063990592957],"min":[-0.3918454051017761,-0.37266355752944946,-0.3333236277103424],"type":"VEC3"},{"bufferView":1,"componentType":5126,"count":23,"max":[0.8323477506637573,0.4837934672832489,0.8751822113990784],"min":[-0.8323477506637573,-1,-0.708037257194519],"type":"VEC3"},{"bufferView":2,"componentType":5126,"count":23,"max":[1,1],"min":[0,0],"type":"VEC2"},{"bufferView":3,"componentType":5123,"count":45,"max":[22],"min":[0],"type":"SCALAR"}],"materials":[{"pbrMetallicRoughness":{"baseColorFactor":[0.00030352698352941176,0.4735314961384573,0.43415363616478553,1],"metallicFactor":0,"roughnessFactor":0.9},"extensions":{"KHR_materials_unlit":{}}}],"meshes":[{"primitives":[{"mode":4,"attributes":{"POSITION":0,"NORMAL":1,"TEXCOORD_0":2},"indices":3,"material":0}]}],"extensionsUsed":["KHR_materials_unlit"]}