{"asset":{"version":"2.0","generator":"THREE.GLTFExporter"},"scenes":[{"name":"AuxScene","nodes":[0]}],"scene":0,"nodes":[{"matrix":[1,0,0,0,0,1,0,0,0,0,1,0,-1.885912695854639,2.81493402612454,-3.0258000081212555,1],"mesh":0}],"bufferViews":[{"buffer":0,"byteOffset":0,"byteLength":972,"target":34962,"byteStride":12},{"buffer":0,"byteOffset":972,"byteLength":972,"target":34962,"byteStride":12},{"buffer":0,"byteOffset":1944,"byteLength":648,"target":34962,"byteStride":8},{"buffer":0,"byteOffset":2592,"byteLength":672,"target":34963}],"buffers":[{"byteLength":3264,"uri":"data:application/octet-stream;base64,"}],"accessors":[{"bufferView":0,"componentType":5126,"count":81,"max":[0.8963956832885742,0.8963956832885742,0.8963956832885742],"min":[-0.8963956832885742,-0.8963956832885742,-0.8963956832885742],"type":"VEC3"},{"bufferView":1,"componentType":5126,"count":81,"max":[1,1,1],"min":[-1,-1,-1],"type":"VEC3"},{"bufferView":2,"componentType":5126,"count":81,"max":[1.0625,1],"min":[-0.0625,0],"type":"VEC2"},{"bufferView":3,"componentType":5123,"count":336,"max":[80],"min":[0],"type":"SCALAR"}],"materials":[{"pbrMetallicRoughness":{"baseColorFactor":[1,0,0,1],"metallicFactor":0,"roughnessFactor":0.9},"extensions":{"KHR_materials_unlit":{}}}],"meshes":[{"primitives":[{"mode":4,"attributes":{"POSITION":0,"NORMAL":1,"TEXCOORD_0":2},"indices":3,"material":0}]}],"extensionsUsed":["KHR_materials_unlit"]}