{"asset":{"version":"2.0","generator":"THREE.GLTFExporter"},"scenes":[{"name":"AuxScene","nodes":[0]}],"scene":0,"nodes":[{"matrix":[1,0,0,0,0,1,0,0,0,0,1,0,-1.7715041088105457,2.1306912142491043,-1.8528769394208666,1],"mesh":0}],"bufferViews":[{"buffer":0,"byteOffset":0,"byteLength":180,"target":34962,"byteStride":12},{"buffer":0,"byteOffset":180,"byteLength":180,"target":34962,"byteStride":12},{"buffer":0,"byteOffset":360,"byteLength":120,"target":34962,"byteStride":8},{"buffer":0,"byteOffset":480,"byteLength":56,"target":34963}],"buffers":[{"byteLength":536,"uri":"data:application/octet-stream;base64,"}],"accessors":[{"bufferView":0,"componentType":5126,"count":15,"max":[0.4590822756290436,0.2513458728790283,0.530102550983429],"min":[-0.4590822756290436,-0.2513458728790283,-0.2650512754917145],"type":"VEC3"},{"bufferView":1,"componentType":5126,"count":15,"max":[0.5959099531173706,0.7256181836128235,0.6880975365638733],"min":[-0.5959099531173706,-1,-0.34404876828193665],"type":"VEC3"},{"bufferView":2,"componentType":5126,"count":15,"max":[1,1],"min":[0,0],"type":"VEC2"},{"bufferView":3,"componentType":5123,"count":27,"max":[14],"min":[0],"type":"SCALAR"}],"materials":[{"pbrMetallicRoughness":{"baseColorFactor":[0.35640014413537763,0.010329823026364548,0.030713443727452196,1],"metallicFactor":0,"roughnessFactor":0.9},"extensions":{"KHR_materials_unlit":{}}}],"meshes":[{"primitives":[{"mode":4,"attributes":{"POSITION":0,"NORMAL":1,"TEXCOORD_0":2},"indices":3,"material":0}]}],"extensionsUsed":["KHR_materials_unlit"]}