{"asset":{"version":"2.0","generator":"THREE.GLTFExporter"},"scenes":[{"name":"AuxScene","nodes":[0]}],"scene":0,"nodes":[{"matrix":[1,0,0,0,0,1,0,0,0,0,1,0,3.0610724418347672,-2.275005763468884,-3.257863841877169,1],"mesh":0}],"bufferViews":[{"buffer":0,"byteOffset":0,"byteLength":240,"target":34962,"byteStride":12},{"buffer":0,"byteOffset":240,"byteLength":240,"target":34962,"byteStride":12},{"buffer":0,"byteOffset":480,"byteLength":160,"target":34962,"byteStride":8},{"buffer":0,"byteOffset":640,"byteLength":96,"target":34963}],"buffers":[{"byteLength":736,"uri":"data:application/octet-stream;base64,"}],"accessors":[{"bufferView":0,"componentType":5126,"count":20,"max":[0.7258046269416809,0.8380870223045349,0.7258046269416809],"min":[-0.7258046269416809,-0.8380870223045349,-0.7258046269416809],"type":"VEC3"},{"bufferView":1,"componentType":5126,"count":20,"max":[0.8660253882408142,1,0.8660253882408142],"min":[-0.8660253882408142,-1,-0.8660253882408142],"type":"VEC3"},{"bufferView":2,"componentType":5126,"count":20,"max":[1.125,1],"min":[-0.125,0],"type":"VEC2"},{"bufferView":3,"componentType":5123,"count":48,"max":[19],"min":[0],"type":"SCALAR"}],"materials":[{"pbrMetallicRoughness":{"baseColorFactor":[0.01680737574872402,0.13286832154414627,0.6172065624120635,1],"metallicFactor":0,"roughnessFactor":0.9},"extensions":{"KHR_materials_unlit":{}}}],"meshes":[{"primitives":[{"mode":4,"attributes":{"POSITION":0,"NORMAL":1,"TEXCOORD_0":2},"indices":3,"material":0}]}],"extensionsUsed":["KHR_materials_unlit"]}