{"asset":{"version":"2.0","generator":"THREE.GLTFExporter"},"scenes":[{"name":"AuxScene","nodes":[0]}],"scene":0,"nodes":[{"matrix":[-0.9904369840974767,0.019034580531894742,-0.13664649748848143,0,0,-0.9904369840974767,-0.13796586727120133,0,-0.13796586727120133,-0.13664649748848143,0.9809654194681052,0,2.862406741014408,4.117862853665494,-0.5151745363845173,1],"mesh":0}],"bufferViews":[{"buffer":0,"byteOffset":0,"byteLength":180,"target":34962,"byteStride":12},{"buffer":0,"byteOffset":180,"byteLength":180,"target":34962,"byteStride":12},{"buffer":0,"byteOffset":360,"byteLength":120,"target":34962,"byteStride":8},{"buffer":0,"byteOffset":480,"byteLength":56,"target":34963}],"buffers":[{"byteLength":536,"uri":"data:application/octet-stream;base64,"}],"accessors":[{"bufferView":0,"componentType":5126,"count":15,"max":[0.7690846920013428,0.1392703503370285,0.8880624771118164],"min":[-0.7690846920013428,-0.1392703503370285,-0.4440312385559082],"type":"VEC3"},{"bufferView":1,"componentType":5126,"count":15,"max":[0.2591792345046997,0.9541670680046082,0.29927441477775574],"min":[-0.2591792345046997,-1,-0.14963720738887787],"type":"VEC3"},{"bufferView":2,"componentType":5126,"count":15,"max":[1,1],"min":[0,0],"type":"VEC2"},{"bufferView":3,"componentType":5123,"count":27,"max":[14],"min":[0],"type":"SCALAR"}],"materials":[{"pbrMetallicRoughness":{"baseColorFactor":[0.22322795730611386,0.02028856305209031,0.2501582847191642,1],"metallicFactor":0,"roughnessFactor":0.9},"extensions":{"KHR_materials_unlit":{}}}],"meshes":[{"primitives":[{"mode":4,"attributes":{"POSITION":0,"NORMAL":1,"TEXCOORD_0":2},"indices":3,"material":0}]}],"extensionsUsed":["KHR_materials_unlit"]}