{"asset":{"version":"2.0","generator":"THREE.GLTFExporter"},"scenes":[{"name":"AuxScene","nodes":[0]}],"scene":0,"nodes":[{"matrix":[1,0,0,0,0,1,0,0,0,0,1,0,-0.4760176527527529,-4.625897435617827,-4.940531782864214,1],"mesh":0}],"bufferViews":[{"buffer":0,"byteOffset":0,"byteLength":252,"target":34962,"byteStride":12},{"buffer":0,"byteOffset":252,"byteLength":252,"target":34962,"byteStride":12},{"buffer":0,"byteOffset":504,"byteLength":168,"target":34962,"byteStride":8},{"buffer":0,"byteOffset":672,"byteLength":72,"target":34963}],"buffers":[{"byteLength":744,"uri":"data:application/octet-stream;base64,"}],"accessors":[{"bufferView":0,"componentType":5126,"count":21,"max":[0.9195070862770081,0.9195070862770081,0.7963165044784546],"min":[-0.9195070862770081,-0.9195070862770081,-0.7963165044784546],"type":"VEC3"},{"bufferView":1,"componentType":5126,"count":21,"max":[1,1,0.8660253882408142],"min":[-1,-1,-0.8660253882408142],"type":"VEC3"},{"bufferView":2,"componentType":5126,"count":21,"max":[1.0833333730697632,1],"min":[-0.0833333358168602,0],"type":"VEC2"},{"bufferView":3,"componentType":5123,"count":36,"max":[20],"min":[0],"type":"SCALAR"}],"materials":[{"pbrMetallicRoughness":{"baseColorFactor":[0.7991027380100881,0.913098651791473,0.11193242782769693,1],"metallicFactor":0,"roughnessFactor":0.9},"extensions":{"KHR_materials_unlit":{}}}],"meshes":[{"primitives":[{"mode":4,"attributes":{"POSITION":0,"NORMAL":1,"TEXCOORD_0":2},"indices":3,"material":0}]}],"extensionsUsed":["KHR_materials_unlit"]}